<svg width="183" height="42" viewBox="0 0 183 42" fill="none" xmlns="http://www.w3.org/2000/svg">
<g clip-path="url(#clip0_0_537)">
<path d="M18.5845 29.6596C17.0301 29.8474 16.2871 32.1593 15.6908 33.3548C14.7425 35.2122 13.9115 37.1289 12.9437 38.9765C12.5526 39.7175 11.5457 42.1381 10.4312 41.9998C8.30975 41.7429 6.4034 41.3576 4.70234 40.8636C3.14793 40.4091 1.87703 39.8953 0.889632 39.3223C0.713661 39.2235 0.606123 39.0358 0.606123 38.8283V24.5418C0.606123 24.3244 0.723437 24.1268 0.918961 24.0379C1.09493 23.949 1.30023 23.9589 1.45665 24.0577C2.80576 24.9073 4.49704 25.6088 6.55004 26.172C8.73013 26.7747 11.1253 27.1106 13.7355 27.1896C14.762 27.2292 15.7201 27.2094 16.5902 27.1304C17.2158 27.0711 17.7242 26.992 18.125 26.8932C18.3694 26.834 18.5454 26.6067 18.5454 26.34V25.4606C18.5454 25.1247 18.2619 24.8678 17.9393 24.8975C17.6851 24.9172 17.4114 24.937 17.1181 24.9567C16.5608 24.9963 16.0525 25.016 15.5734 25.016C10.3823 25.016 6.49138 24.0577 3.90069 22.1311C1.30023 20.2242 0 17.4282 0 13.7429C0 10.6505 1.11448 8.23974 2.82531 5.76973C3.9789 4.12965 5.24003 2.52908 6.82377 1.2842C7.63519 0.651879 8.77901 -0.395404 9.85439 0.147997C11.5066 0.968039 12.5428 3.52697 13.3738 5.04849C14.3808 6.8763 15.329 8.7535 16.5315 10.4529C17.2843 11.5199 18.4183 13.0908 19.875 13.0908C23.4824 13.0908 26.8161 -0.395404 29.3676 0.0491969C31.753 0.464158 33.7669 1.02732 35.4191 1.75844C35.6244 1.84736 35.7613 2.05484 35.7613 2.28208V16.5488C35.7613 16.7761 35.6244 16.9836 35.4191 17.0725L35.292 17.1219C35.1356 17.191 34.9596 17.1812 34.813 17.1021C33.5518 16.4402 32.017 15.8968 30.2084 15.4818C28.2825 15.0372 26.1806 14.8198 23.8832 14.8198C22.8958 14.8198 21.9671 14.8791 21.1165 14.9977C20.5593 15.0767 20.1291 15.1656 19.8163 15.2546C19.5817 15.3237 19.4155 15.551 19.4155 15.798V16.5982C19.4155 16.9243 19.699 17.191 20.0216 17.1614C20.2856 17.1416 20.5789 17.1219 20.9015 17.0922C21.4978 17.0527 22.2701 17.033 23.2184 17.033C28.0478 17.033 31.7237 18.0012 34.2362 19.9476C40.4929 24.7789 38.0587 34.1847 33.1412 38.9666C31.665 40.3992 28.7322 43.3336 26.8258 41.1995C25.3496 39.5495 24.5284 37.2475 23.5508 35.2913C22.6612 33.503 22.0257 31.3788 20.3247 30.1833C19.8652 29.8572 19.3177 29.6201 18.7605 29.63C18.7116 29.6399 18.6432 29.6498 18.5845 29.6596Z" fill="url(#paint0_linear_0_537)"/>
<path d="M18.5845 29.6596C17.0301 29.8474 16.2871 32.1593 15.6908 33.3548C14.7425 35.2122 13.9115 37.1289 12.9437 38.9765C12.5526 39.7175 11.5457 42.1381 10.4312 41.9998C8.30975 41.7429 6.4034 41.3576 4.70234 40.8636C3.14793 40.4091 1.87703 39.8953 0.889632 39.3223C0.713661 39.2235 0.606123 39.0358 0.606123 38.8283V24.5418C0.606123 24.3244 0.723437 24.1268 0.918961 24.0379C1.09493 23.949 1.30023 23.9589 1.45665 24.0577C2.80576 24.9073 4.49704 25.6088 6.55004 26.172C8.73013 26.7747 11.1253 27.1106 13.7355 27.1896C14.762 27.2292 15.7201 27.2094 16.5902 27.1304C17.2158 27.0711 17.7242 26.992 18.125 26.8932C18.3694 26.834 18.5454 26.6067 18.5454 26.34V25.4606C18.5454 25.1247 18.2619 24.8678 17.9393 24.8975C17.6851 24.9172 17.4114 24.937 17.1181 24.9567C16.5608 24.9963 16.0525 25.016 15.5734 25.016C10.3823 25.016 6.49138 24.0577 3.90069 22.1311C1.30023 20.2242 0 17.4282 0 13.7429C0 10.6505 1.11448 8.23974 2.82531 5.76973C3.9789 4.12965 5.24003 2.52908 6.82377 1.2842C7.63519 0.651879 8.77901 -0.395404 9.85439 0.147997C11.5066 0.968039 12.5428 3.52697 13.3738 5.04849C14.3808 6.8763 15.329 8.7535 16.5315 10.4529C17.2843 11.5199 18.4183 13.0908 19.875 13.0908C23.4824 13.0908 26.8161 -0.395404 29.3676 0.0491969C31.753 0.464158 33.7669 1.02732 35.4191 1.75844C35.6244 1.84736 35.7613 2.05484 35.7613 2.28208V16.5488C35.7613 16.7761 35.6244 16.9836 35.4191 17.0725L35.292 17.1219C35.1356 17.191 34.9596 17.1812 34.813 17.1021C33.5518 16.4402 32.017 15.8968 30.2084 15.4818C28.2825 15.0372 26.1806 14.8198 23.8832 14.8198C22.8958 14.8198 21.9671 14.8791 21.1165 14.9977C20.5593 15.0767 20.1291 15.1656 19.8163 15.2546C19.5817 15.3237 19.4155 15.551 19.4155 15.798V16.5982C19.4155 16.9243 19.699 17.191 20.0216 17.1614C20.2856 17.1416 20.5789 17.1219 20.9015 17.0922C21.4978 17.0527 22.2701 17.033 23.2184 17.033C28.0478 17.033 31.7237 18.0012 34.2362 19.9476C40.4929 24.7789 38.0587 34.1847 33.1412 38.9666C31.665 40.3992 28.7322 43.3336 26.8258 41.1995C25.3496 39.5495 24.5284 37.2475 23.5508 35.2913C22.6612 33.503 22.0257 31.3788 20.3247 30.1833C19.8652 29.8572 19.3177 29.6201 18.7605 29.63C18.7116 29.6399 18.6432 29.6498 18.5845 29.6596Z" fill="url(#paint1_linear_0_537)"/>
</g>
<path d="M57.552 25.836C54.8 25.836 51.856 25.02 50.32 23.836L51.76 21.356C53.088 22.412 55.568 23.18 57.76 23.18C59.376 23.18 60.4 22.796 60.4 22.204C60.4 21.708 59.664 21.404 57.92 21.212L55.808 20.972C52.192 20.588 50.64 19.58 50.64 17.548C50.64 15.084 53.424 13.692 57.504 13.692C59.92 13.692 62.192 14.268 63.6 15.18L62.432 17.58C61.184 16.748 59.296 16.22 57.536 16.236C55.904 16.252 54.704 16.636 54.688 17.244C54.688 17.676 55.328 17.948 56.8 18.092L58.928 18.316C62.8 18.716 64.464 19.772 64.464 21.852C64.48 24.22 61.76 25.836 57.552 25.836ZM65.4213 25.5V13.564H69.2133V19.244H69.2293C70.0133 17.868 71.4373 16.972 73.5013 16.972C76.1253 16.972 77.7893 18.444 77.7733 20.828L77.7573 25.5H73.9973V21.228C73.9973 19.916 73.1813 19.132 71.7733 19.132C70.1733 19.132 69.1973 20.06 69.1973 21.628V25.5H65.4213ZM82.7456 25.756C80.1216 25.756 78.5856 24.924 78.5856 23.484C78.5856 21.836 80.5856 20.716 84.0096 20.396L87.1616 20.108C87.5136 20.076 87.7216 19.948 87.7216 19.788C87.7216 19.388 86.8096 19.084 85.4176 19.084C83.4176 19.084 81.1776 19.724 79.6096 20.732L78.6176 18.764C80.2176 17.676 82.8096 16.972 85.4176 16.972C89.0496 16.972 91.4496 18.124 91.4496 20.156V25.5H88.1696L87.6576 23.708H87.6416C86.8256 24.972 85.0176 25.756 82.7456 25.756ZM84.0896 23.516C86.2336 23.516 87.6576 22.828 87.6576 21.82V21.788L84.2656 22.092C83.0336 22.188 82.3776 22.428 82.3776 22.86C82.3776 23.276 82.9696 23.516 84.0896 23.516ZM97.1851 25.756C94.2411 25.756 92.3211 24.028 92.3211 21.372C92.3211 18.716 94.2411 16.972 97.1851 16.972C99.2491 16.972 101.009 17.916 101.649 19.356H101.665V13.564H105.457V25.5H102.193L101.697 23.372H101.681C101.025 24.828 99.2491 25.756 97.1851 25.756ZM98.9451 23.244C100.673 23.244 101.793 22.508 101.793 21.372C101.793 20.236 100.673 19.484 98.9451 19.484C97.2171 19.484 96.0971 20.236 96.0971 21.372C96.0971 22.508 97.2171 23.244 98.9451 23.244ZM108.686 16.364C107.47 16.364 106.59 15.596 106.59 14.508C106.59 13.42 107.47 12.668 108.686 12.668C109.902 12.668 110.782 13.42 110.782 14.508C110.782 15.596 109.902 16.364 108.686 16.364ZM106.798 25.5V17.244H110.574V25.5H106.798ZM118.785 25.756C114.529 25.756 111.649 24.044 111.649 21.356C111.649 18.78 114.321 16.972 118.145 16.972C121.905 16.972 124.385 18.716 124.385 21.372C124.385 21.612 124.353 21.964 124.273 22.236H115.633C116.065 23.196 117.505 23.58 119.057 23.58C120.689 23.58 122.337 23.228 123.185 22.748L124.225 24.54C123.105 25.26 120.993 25.756 118.785 25.756ZM115.569 20.62H120.577C120.529 19.676 119.441 19.036 118.113 19.036C116.753 19.036 115.713 19.692 115.569 20.62ZM133.595 16.972C136.219 16.972 137.883 18.444 137.867 20.828L137.851 25.5H134.091V21.228C134.091 19.916 133.275 19.132 131.867 19.132C130.267 19.132 129.291 20.06 129.291 21.628V25.5H125.515V17.244H128.779L129.179 19.244H129.195C129.963 17.868 131.531 16.972 133.595 16.972ZM145.049 25.756C142.361 25.756 140.713 24.54 140.713 22.556L140.697 19.548H138.393V17.244H140.697V15.036L144.473 14.364V17.244H149.513V19.548H144.473V21.708C144.473 22.7 144.985 23.212 146.137 23.212C147.257 23.212 148.089 22.812 148.985 21.996L149.785 24.124C148.505 25.276 147.081 25.756 145.049 25.756ZM152.386 25.676C151.17 25.676 150.306 24.924 150.306 23.884C150.306 22.828 151.17 22.092 152.386 22.092C153.602 22.092 154.482 22.828 154.482 23.884C154.482 24.924 153.602 25.676 152.386 25.676ZM161.776 25.756C157.696 25.756 155.024 24.028 155.04 21.372C155.04 18.716 157.6 16.972 161.44 16.972C164.64 16.972 166.992 18.252 167.424 20.204L163.904 20.78C163.696 19.868 162.848 19.292 161.6 19.292C159.904 19.292 158.816 20.076 158.816 21.372C158.816 22.652 159.952 23.452 161.824 23.452C163.44 23.452 164.608 22.716 164.864 21.516L168.368 22.06C167.904 24.284 165.296 25.756 161.776 25.756ZM175.555 25.756C171.555 25.756 168.931 24.028 168.931 21.372C168.931 18.716 171.555 16.972 175.555 16.972C179.571 16.972 182.195 18.716 182.195 21.372C182.195 24.028 179.571 25.756 175.555 25.756ZM175.555 23.548C177.283 23.548 178.403 22.684 178.403 21.372C178.403 20.06 177.283 19.196 175.555 19.196C173.827 19.196 172.707 20.06 172.707 21.372C172.707 22.684 173.827 23.548 175.555 23.548Z" fill="white"/>
<defs>
<linearGradient id="paint0_linear_0_537" x1="27.2394" y1="9.46422" x2="7.18243" y2="32.8363" gradientUnits="userSpaceOnUse">
<stop stop-color="#9DE8EE"/>
<stop offset="0.0001" stop-color="#9DE8EE"/>
<stop offset="0.490049" stop-color="#FA7C0B"/>
<stop offset="1" stop-color="#9F8CED"/>
</linearGradient>
<linearGradient id="paint1_linear_0_537" x1="27.2394" y1="9.46422" x2="7.18243" y2="32.8363" gradientUnits="userSpaceOnUse">
<stop stop-color="#9DE8EE"/>
<stop offset="0.0001" stop-color="#9DE8EE"/>
<stop offset="0.490049" stop-color="#FA7C0B"/>
<stop offset="1" stop-color="#9F8CED"/>
</linearGradient>
<clipPath id="clip0_0_537">
<rect width="38" height="42" fill="white"/>
</clipPath>
</defs>
</svg>
